# xmcd
#
# Track frame offsets:
#	150
#	13417
#	29054
#	44529
#	59780
#	77398
#	94580
#	112670
#	127319
#	142414
#	158082
#	175535
#	193817
#	212504
#	234315
#	247715
#	268399
#	290001
#	301635
#	321924
#	343529
#
# Disc length: 4792 seconds
#
# Revision: 0
# Processed by: cddbd v1.5.2PL0 Copyright (c) Steve Scherf et al.
# Submitted via: EasyCDDAExtractor 16.0.6.1
#
DISCID=3412b615
DTITLE=LOS BUKIS - 21 SUPEREXITOS
DYEAR=1900
DGENRE=
TTITLE0=Yo te necesito
TTITLE1=Presiento que voy a llorar
TTITLE2=Donde estas
TTITLE3=Mi fantasia
TTITLE4=Necesito una compañera
TTITLE5=Loco por ti
TTITLE6=A donde vas
TTITLE7=Este adios
TTITLE8=Que mala
TTITLE9=Necesito de ti
TTITLE10=Como haces falta
TTITLE11=Mi deseo
TTITLE12=Tu carcel
TTITLE13=Y ahora te vas
TTITLE14=Falso amor
TTITLE15=Si me recuerdas
TTITLE16=Chiquilla bonita
TTITLE17=Morenita
TTITLE18=Como fui a enamorarme de ti
TTITLE19=Tus mentiras
TTITLE20=Tu ingratitud
EXTD=
EXTT0=
EXTT1=
EXTT2=
EXTT3=
EXTT4=
EXTT5=
EXTT6=
EXTT7=
EXTT8=
EXTT9=
EXTT10=
EXTT11=
EXTT12=
EXTT13=
EXTT14=
EXTT15=
EXTT16=
EXTT17=
EXTT18=
EXTT19=
EXTT20=
PLAYORDER=
